<svg width="20" height="18" viewBox="0 0 20 18" fill="none" xmlns="http://www.w3.org/2000/svg">
<path d="M0 7.5C0 3.35786 3.35786 0 7.5 0C11.6421 0 15 3.35786 15 7.5C15 11.6421 11.6421 15 7.5 15C6.40027 15 5.35412 14.7628 4.41143 14.3363C3.15315 14.6267 1.79825 14.8765 1.17494 14.9875C0.487343 15.1099 -0.111564 14.5063 0.0217382 13.8173C0.139541 13.2085 0.401236 11.9 0.703363 10.6749C0.251933 9.70995 0 8.63348 0 7.5ZM6.144 3.30723C5.70245 3.54311 5.35423 3.91012 5.09057 4.39644C4.89315 4.76058 5.0283 5.21582 5.39244 5.41324C5.75657 5.61066 6.21181 5.47551 6.40923 5.11137C6.55557 4.84146 6.70735 4.7069 6.8508 4.63027C7.00176 4.54962 7.20469 4.50075 7.49994 4.50073C7.72352 4.50072 7.98714 4.57985 8.18079 4.73853C8.35131 4.87825 8.4999 5.10296 8.4999 5.5C8.4999 5.69484 8.42481 5.78469 7.9115 6.18806C7.46115 6.54195 6.7499 7.11604 6.7499 8.25C6.7499 8.66421 7.08569 9 7.4999 9C7.91411 9 8.2499 8.66421 8.2499 8.25C8.2499 7.8795 8.41365 7.70118 8.8383 7.36748C8.86437 7.347 8.89277 7.32518 8.92292 7.30201C9.3112 7.00371 9.9999 6.47459 9.9999 5.5C9.9999 4.65186 9.64849 4.00192 9.13151 3.57829C8.63766 3.17363 8.02628 3.0007 7.49986 3.00073C7.04511 3.00076 6.57804 3.07535 6.144 3.30723ZM8.50014 11.0001C8.50014 10.4477 8.05239 10 7.50007 10C6.94775 10 6.5 10.4477 6.5 11.0001C6.5 11.5524 6.94775 12.0001 7.50007 12.0001C8.05239 12.0001 8.50014 11.5524 8.50014 11.0001ZM7.40039 15.9995C8.7386 17.241 10.5307 18 12.5001 18C13.5998 18 14.646 17.7629 15.5887 17.3364C16.8486 17.6268 18.2102 17.8756 18.8365 17.986C19.5258 18.1076 20.1242 17.5002 19.9871 16.8105C19.8662 16.202 19.599 14.8971 19.2968 13.6748C19.7482 12.7099 20.0001 11.6335 20.0001 10.5C20.0001 7.21712 17.8908 4.42685 14.9535 3.41052C15.6206 4.62383 16.0001 6.01762 16.0001 7.50005C16.0001 12.1945 12.1945 16 7.50012 16C7.46684 16 7.43359 15.9999 7.40039 15.9995Z" fill="#6E7191"/>
</svg>
